<svg width="142" height="20" viewBox="0 0 142 20" fill="none" xmlns="http://www.w3.org/2000/svg">
<path d="M7.41064 0.341207C5.50035 0.853304 3.7848 1.92035 2.48094 3.40743C1.17707 4.8945 0.343436 6.73481 0.0854506 8.69565C-0.172535 10.6565 0.156714 12.6498 1.03156 14.4235C1.90641 16.1972 3.28757 17.6717 5.00039 18.6605C6.71322 19.6493 8.68078 20.108 10.6543 19.9786C12.6278 19.8491 14.5186 19.1374 16.0876 17.9334C17.6566 16.7294 18.8334 15.0872 19.4691 13.2144C20.1049 11.3417 20.171 9.32242 19.6591 7.41206C19.3193 6.14344 18.7329 4.95418 17.9334 3.91222C17.134 2.87026 16.137 1.996 14.9996 1.33938C13.8622 0.682769 12.6065 0.256657 11.3044 0.0853877C10.0023 -0.0858817 8.67917 0.0010465 7.41064 0.341207ZM16.0935 5.19524L17.5345 4.85425C17.7561 4.80208 17.8846 5.00017 17.747 5.18087L16.8488 6.35885L15.8523 7.66611C15.7343 7.81732 15.503 7.84681 15.4175 7.71601L14.8444 6.83366L14.2713 5.95056C14.1866 5.81976 14.3046 5.61864 14.4936 5.57252L16.0935 5.19524ZM11.0156 3.74961L12.087 2.50284L13.0525 1.38082C13.2037 1.20843 13.4215 1.29311 13.4162 1.52069L13.3822 3.00185L13.3444 4.64481C13.3398 4.83913 13.1682 4.99639 13.0223 4.94044L12.0394 4.5624L11.0565 4.18436C10.9113 4.12841 10.8894 3.89705 11.0156 3.74961ZM14.8573 8.64296L14.8663 8.67774C15.2137 9.9748 15.0354 11.3565 14.37 12.5229C13.7047 13.6892 12.6061 14.546 11.3128 14.9071L11.2954 14.9116C10.3232 15.1795 9.2935 15.153 8.33639 14.8356C7.37929 14.5182 6.53781 13.9241 5.91836 13.1284C5.29892 12.3327 4.92934 11.3712 4.85635 10.3655C4.78337 9.35978 5.01026 8.35501 5.50834 7.47824C6.00642 6.60148 6.75331 5.8921 7.65456 5.43983C8.55581 4.98756 9.57093 4.8127 10.5716 4.93737C11.5722 5.06204 12.5134 5.48064 13.2761 6.14024C14.0388 6.79983 14.5888 7.67078 14.8565 8.64296H14.8573ZM7.12938 4.31743L7.26396 2.67976L7.38418 1.20314C7.40308 0.976314 7.63141 0.915072 7.76222 1.10258L8.60525 2.32062L9.53976 3.67174C9.6509 3.83203 9.60478 4.06036 9.45357 4.10044L8.43664 4.37338L7.42047 4.64557C7.26774 4.68564 7.1135 4.51099 7.12938 4.31743ZM2.93994 4.09061L4.33793 4.58055L5.88865 5.12492C6.07238 5.18919 6.16916 5.40089 6.07087 5.52262L5.40854 6.33994L4.74621 7.15802C4.64792 7.27975 4.42034 7.22909 4.31903 7.06276L3.46541 5.6572L2.69497 4.39228C2.57702 4.19797 2.72521 4.01424 2.93994 4.0891V4.09061ZM0.795697 9.33931L2.21486 8.9144L3.78902 8.4426C3.97501 8.38665 4.1784 8.50158 4.16706 8.65733L4.11186 9.70828L4.05667 10.7592C4.04911 10.915 3.83514 11.008 3.65595 10.9331L2.14228 10.3026L0.773771 9.72794C0.565849 9.64023 0.577946 9.40434 0.795697 9.33931ZM3.79809 14.8322L2.36154 15.1732C2.14001 15.2262 2.01147 15.0281 2.14908 14.8474L3.04201 13.6694L4.03852 12.3621C4.15647 12.2109 4.38783 12.1807 4.47327 12.3122L5.04638 13.1946L5.61949 14.0769C5.70417 14.2085 5.58622 14.4088 5.3972 14.4549L3.79809 14.8322ZM8.87819 16.2756L7.80531 17.5246L6.8398 18.6482C6.68858 18.8206 6.47083 18.7359 6.47612 18.5083L6.51015 17.0279L6.54795 15.3849C6.55249 15.1906 6.72412 15.0326 6.87004 15.0885L7.85295 15.4666L8.83585 15.8446C8.98253 15.8975 9.00446 16.1312 8.87819 16.2756ZM12.7644 15.707L12.6299 17.3454L12.5096 18.8213C12.4907 19.0481 12.2624 19.1094 12.1316 18.9226L11.2886 17.7046L10.3541 16.3527C10.2429 16.1932 10.2898 15.9648 10.4403 15.924L11.4572 15.6518L12.4733 15.3796C12.6261 15.3418 12.7803 15.5195 12.7644 15.71V15.707ZM16.9539 15.9338L15.5559 15.4439L14.0052 14.9048C13.8214 14.8405 13.7247 14.6281 13.823 14.5071L14.4853 13.689L15.1476 12.8732C15.2459 12.7523 15.4735 12.8029 15.5748 12.9685L16.4292 14.3725L17.1988 15.6382C17.3168 15.8303 17.1686 16.014 16.9539 15.9384V15.9338ZM19.0981 10.6836L17.679 11.1093L16.1048 11.5879C15.9188 11.6431 15.7154 11.5289 15.7268 11.3724L15.782 10.3222L15.8371 9.27126C15.8447 9.11476 16.0587 9.02176 16.2379 9.09737L17.7546 9.73096L19.1185 10.3026C19.328 10.3872 19.3159 10.6231 19.0981 10.6882V10.6836Z" fill="#00E589"/>
<path d="M26.1103 15.0712L27.0448 13.4207C27.2044 13.1621 27.5824 13.2014 27.7253 13.3012C27.8009 13.3413 29.2375 14.3945 30.5485 14.3945C31.3439 14.3945 31.9208 13.8977 31.9208 13.2014C31.9208 12.3697 31.2252 11.7301 29.8726 11.1932C28.1623 10.5173 26.0166 9.18509 26.0166 6.7989C26.0166 4.83309 27.5476 2.84158 30.6097 2.84158C32.6784 2.84158 34.2692 3.89556 34.8657 4.33257C35.1039 4.47169 35.0646 4.83007 34.9844 4.96919L33.966 6.50025C33.8269 6.71876 33.4692 6.89795 33.29 6.75883C33.1109 6.65903 31.6592 5.56574 30.4464 5.56574C29.7304 5.56574 29.1936 6.04282 29.1936 6.57964C29.1936 7.31531 29.7902 7.87254 31.3613 8.5084C32.912 9.12536 35.3776 10.3381 35.3776 13.0449C35.3776 15.0931 33.6084 17.161 30.6846 17.161C28.0996 17.161 26.6683 16.0873 26.2109 15.6299C26.0113 15.4288 25.9515 15.3494 26.1103 15.0712Z" fill="white"/>
<path d="M43.7285 2.84159C44.6707 2.83989 45.604 3.02454 46.4745 3.38492C47.3451 3.74529 48.1358 4.27428 48.8011 4.94144C49.4665 5.6086 49.9933 6.40075 50.3513 7.27231C50.7093 8.14386 50.8914 9.07761 50.8871 10.0198C50.8871 13.9976 47.7055 17.1587 43.7285 17.1587C42.7894 17.1645 41.8585 16.9839 40.9897 16.6272C40.1209 16.2705 39.3316 15.7448 38.6676 15.0808C38.0035 14.4167 37.4779 13.6274 37.1212 12.7586C36.7645 11.8899 36.5838 10.9589 36.5896 10.0198C36.5896 6.04283 39.7515 2.84159 43.7285 2.84159ZM43.7285 13.9771C45.9159 13.9771 47.7055 12.1875 47.7055 10.0198C47.7055 7.83248 45.9159 6.02318 43.7285 6.02318C41.5608 6.02318 39.7712 7.83248 39.7712 10.0198C39.7773 11.0675 40.1962 12.0705 40.9371 12.8113C41.6779 13.5521 42.6809 13.971 43.7285 13.9771Z" fill="white"/>
<path d="M53.0941 3.41774C53.0941 3.31747 53.1339 3.22132 53.2048 3.15042C53.2757 3.07953 53.3719 3.0397 53.4721 3.0397H55.8386C55.9379 3.04291 56.0322 3.08377 56.1024 3.15398C56.1726 3.22419 56.2135 3.31849 56.2167 3.41774V14.0369H60.949C61.0493 14.0369 61.1454 14.0767 61.2163 14.1476C61.2872 14.2185 61.327 14.3147 61.327 14.4149V16.5826C61.327 16.6829 61.2872 16.779 61.2163 16.8499C61.1454 16.9208 61.0493 16.9606 60.949 16.9606H53.4721C53.3719 16.9606 53.2757 16.9208 53.2048 16.8499C53.1339 16.779 53.0941 16.6829 53.0941 16.5826V3.41774Z" fill="white"/>
<path d="M59.5208 3.55754C59.4013 3.29896 59.5601 3.04038 59.8587 3.04038H62.505C62.5759 3.04273 62.6447 3.06431 62.7043 3.1028C62.7638 3.14129 62.8117 3.19524 62.843 3.25888L66.1236 10.5173H66.2431L69.5244 3.25888C69.5557 3.19524 69.6036 3.14129 69.6631 3.1028C69.7227 3.06431 69.7916 3.04273 69.8624 3.04038H72.5087C72.8111 3.04038 72.9623 3.29896 72.8467 3.55754L66.603 16.9402C66.5729 17.0047 66.5253 17.0595 66.4655 17.0981C66.4057 17.1368 66.3362 17.1578 66.265 17.1587H66.0661C65.9948 17.1579 65.9252 17.137 65.8652 17.0983C65.8053 17.0597 65.7575 17.0048 65.7274 16.9402L59.5208 3.55754Z" fill="white"/>
<path d="M74.2734 3.41774C74.2734 3.31747 74.3132 3.22132 74.3841 3.15042C74.455 3.07953 74.5512 3.0397 74.6514 3.0397H82.8844C82.9847 3.0397 83.0808 3.07953 83.1517 3.15042C83.2226 3.22132 83.2624 3.31747 83.2624 3.41774V5.58542C83.2624 5.68568 83.2226 5.78184 83.1517 5.85273C83.0808 5.92363 82.9847 5.96346 82.8844 5.96346H77.3763V8.42903H81.9128C82.012 8.43242 82.1062 8.47334 82.1764 8.54352C82.2466 8.61369 82.2875 8.70789 82.2909 8.80707V10.9748C82.2909 11.075 82.251 11.1712 82.1801 11.2421C82.1092 11.313 82.0131 11.3528 81.9128 11.3528H77.3763V14.0376H82.8844C82.9847 14.0376 83.0808 14.0775 83.1517 14.1484C83.2226 14.2193 83.2624 14.3154 83.2624 14.4157V16.5834C83.2624 16.6836 83.2226 16.7798 83.1517 16.8507C83.0808 16.9216 82.9847 16.9614 82.8844 16.9614H74.6514C74.5512 16.9614 74.455 16.9216 74.3841 16.8507C74.3132 16.7798 74.2734 16.6836 74.2734 16.5834V3.41774Z" fill="white"/>
<path d="M85.7266 3.41774C85.7266 3.31747 85.7664 3.22132 85.8373 3.15042C85.9082 3.07953 86.0044 3.0397 86.1046 3.0397H92.0505C94.4366 3.0397 96.3858 4.96846 96.3858 7.33499C96.3858 9.16394 95.1761 10.636 93.4424 11.3316L96.1643 16.383C96.3034 16.6408 96.1643 16.9591 95.8263 16.9591H93.18C93.116 16.9597 93.053 16.9435 92.9972 16.9122C92.9413 16.8809 92.8947 16.8356 92.8617 16.7807L90.2177 11.5123H88.8492V16.5834C88.846 16.6826 88.8051 16.7769 88.7349 16.8471C88.6647 16.9173 88.5704 16.9582 88.4712 16.9614H86.1046C86.0044 16.9614 85.9082 16.9216 85.8373 16.8507C85.7664 16.7798 85.7266 16.6836 85.7266 16.5834V3.41774ZM91.7919 8.98626C92.6069 8.98626 93.304 8.23018 93.304 7.3985C93.3011 6.99836 93.1408 6.61546 92.8579 6.33252C92.5749 6.04957 92.192 5.8893 91.7919 5.88634H88.8492V8.98626H91.7919Z" fill="white"/>
<path d="M98.8516 3.41774C98.8504 3.32046 98.8871 3.22653 98.9541 3.15593C99.021 3.08533 99.1128 3.04363 99.21 3.0397H104.062C107.9 3.0397 111.042 6.16155 111.042 9.97975C111.039 11.8301 110.303 13.604 108.995 14.9123C107.686 16.2207 105.912 16.9567 104.062 16.9591H99.21C99.1128 16.9552 99.021 16.9135 98.9541 16.8429C98.8871 16.7723 98.8504 16.6784 98.8516 16.5811V3.41774ZM103.863 14.0172C106.11 14.0172 107.741 12.2472 107.741 9.98051C107.741 7.73344 106.11 5.96345 103.863 5.96345H101.954V14.0172H103.863Z" fill="white"/>
<path d="M113.269 3.41774C113.269 3.31747 113.309 3.22132 113.38 3.15042C113.451 3.07953 113.547 3.0397 113.647 3.0397H121.88C121.98 3.0397 122.077 3.07953 122.147 3.15042C122.218 3.22132 122.258 3.31747 122.258 3.41774V5.58542C122.258 5.68568 122.218 5.78184 122.147 5.85273C122.077 5.92363 121.98 5.96346 121.88 5.96346H116.371V8.42903H120.908C121.007 8.43225 121.101 8.47311 121.172 8.54332C121.242 8.61353 121.283 8.70783 121.286 8.80707V10.9748C121.286 11.075 121.246 11.1712 121.175 11.2421C121.104 11.313 121.008 11.3528 120.908 11.3528H116.371V14.0376H121.88C121.98 14.0376 122.077 14.0775 122.147 14.1484C122.218 14.2193 122.258 14.3154 122.258 14.4157V16.5834C122.258 16.6836 122.218 16.7798 122.147 16.8507C122.077 16.9216 121.98 16.9614 121.88 16.9614H113.647C113.547 16.9614 113.451 16.9216 113.38 16.8507C113.309 16.7798 113.269 16.6836 113.269 16.5834V3.41774Z" fill="white"/>
<path d="M125.419 13.3806C125.924 13.3874 126.406 13.5912 126.762 13.9484C127.119 14.3056 127.322 14.788 127.328 15.2927C127.328 16.3066 126.453 17.1617 125.419 17.1617C124.925 17.1562 124.453 16.9576 124.103 16.6082C123.754 16.2589 123.555 15.7867 123.55 15.2927C123.55 14.2554 124.405 13.3806 125.419 13.3806Z" fill="#00E589"/>
<path d="M129.097 8.67925C129.098 8.61868 129.123 8.56099 129.167 8.51858C129.21 8.47617 129.268 8.45241 129.329 8.45243H132.255C133.752 8.45243 134.977 9.6682 134.977 11.1395C134.978 11.8611 134.693 12.5534 134.185 13.0658C133.677 13.5782 132.987 13.869 132.265 13.875H130.989V16.7292C130.987 16.7899 130.962 16.8474 130.919 16.8903C130.876 16.9331 130.818 16.958 130.758 16.9598H129.321C129.291 16.9599 129.261 16.954 129.233 16.9425C129.205 16.931 129.179 16.914 129.158 16.8926C129.136 16.8711 129.119 16.8457 129.107 16.8177C129.096 16.7896 129.09 16.7596 129.09 16.7292L129.097 8.67925ZM132.15 12.096C132.276 12.0968 132.401 12.0725 132.518 12.0245C132.635 11.9765 132.741 11.9059 132.83 11.8165C132.92 11.7272 132.99 11.621 133.038 11.5042C133.086 11.3873 133.111 11.2621 133.11 11.1358C133.11 10.6246 132.672 10.236 132.15 10.236H130.994V12.096H132.15Z" fill="white"/>
<path d="M137.232 10.236H135.493C135.433 10.235 135.375 10.2102 135.332 10.1669C135.29 10.1236 135.266 10.0653 135.266 10.0047V8.67925C135.266 8.61909 135.29 8.5614 135.333 8.51886C135.375 8.47632 135.433 8.45243 135.493 8.45243H140.892C140.953 8.45243 141.01 8.47632 141.053 8.51886C141.095 8.5614 141.119 8.61909 141.119 8.67925V10.0047C141.119 10.0653 141.096 10.1236 141.053 10.1669C141.011 10.2102 140.953 10.235 140.892 10.236H139.153V16.7292C139.151 16.7899 139.126 16.8474 139.083 16.8903C139.04 16.9331 138.983 16.958 138.922 16.9598H137.464C137.403 16.958 137.345 16.9331 137.302 16.8903C137.259 16.8474 137.234 16.7899 137.232 16.7292V10.236Z" fill="white"/>
</svg>
